<svg xmlns="http://www.w3.org/2000/svg" viewBox="0 0 900 860" role="img" aria-label="Wireframe — Contact (desktop)">
<style>text{font-family:Arial,Helvetica,sans-serif;font-size:13px;fill:#333}.b{fill:#f4f4f4;stroke:#999;stroke-width:1.5}.d{fill:#1b1b1e}.t{fill:#fff}.a{fill:#e8a33d;stroke:#999}.g{fill:#1f6f78}.h{font-weight:bold;font-size:15px}</style>
<rect width="900" height="860" fill="#fff"/><text x="10" y="20" class="h">Wireframe — Contact (desktop)</text>
<g transform="translate(0,30)"><rect class="d" width="900" height="50"/><text x="20" y="31" class="t h" style="fill:#fff">Durban Youth Council</text><text x="430" y="31" style="fill:#fff">Home</text><text x="520" y="31" style="fill:#fff">About Us</text><text x="610" y="31" style="fill:#fff">Programmes</text><text x="700" y="31" style="fill:#fff">Contact</text><rect class="a" x="780" y="12" width="105" height="26" rx="6"/><text x="788" y="30" style="font-size:11px">Volunteer/Sponsor</text><rect class="g" y="50" width="900" height="90"/><text x="40" y="95" class="t h" style="fill:#fff;font-size:22px">Contact Us</text><rect class="b" fill="#fff" x="40" y="165" width="410" height="300"/><text x="55" y="192" class="h">Main Office (Berea)</text><text x="55" y="215">Address · email</text><rect class="b" x="55" y="230" width="380" height="215"/><line x1="55" y1="230" x2="435" y2="445" stroke="#ccc"/><line x1="435" y1="230" x2="55" y2="445" stroke="#ccc"/><text x="193.8" y="341.5" style="background:#fff">Google Map embed</text><rect class="b" fill="#fff" x="470" y="165" width="410" height="300"/><text x="485" y="192" class="h">Community Outreach Venue (Sydenham)</text><text x="485" y="215">Address · email</text><rect class="b" x="485" y="230" width="380" height="215"/><line x1="485" y1="230" x2="865" y2="445" stroke="#ccc"/><line x1="865" y1="230" x2="485" y2="445" stroke="#ccc"/><text x="623.8" y="341.5" style="background:#fff">Google Map embed</text><rect fill="#f4f4f4" y="490" width="900" height="260"/><text x="40" y="520" class="h">Send us a message</text><rect class="b" fill="#fff" x="40" y="530" width="400" height="34"/><text x="50" y="552" style="fill:#888">Full name</text><rect class="b" fill="#fff" x="40" y="575" width="400" height="34"/><text x="50" y="597" style="fill:#888">Email address</text><rect class="b" fill="#fff" x="40" y="620" width="400" height="70"/><text x="50" y="642" style="fill:#888">Message</text><rect class="a" x="40" y="705" width="130" height="34" rx="6"/><text x="55" y="727">Send message</text><rect class="d" y="750" width="900" height="80"/><text x="20" y="780" style="fill:#fff">About blurb</text><text x="410.0" y="780" style="fill:#fff">Quick links</text><text x="740" y="780" style="fill:#fff">Email · Social</text><text x="370.0" y="815" style="fill:#aaa;font-size:11px">© 2026 Durban Youth Council</text></g></svg>