<svg xmlns="http://www.w3.org/2000/svg" viewBox="0 0 900 855" role="img" aria-label="Wireframe — Home (desktop)">
<style>text{font-family:Arial,Helvetica,sans-serif;font-size:13px;fill:#333}.b{fill:#f4f4f4;stroke:#999;stroke-width:1.5}.d{fill:#1b1b1e}.t{fill:#fff}.a{fill:#e8a33d;stroke:#999}.g{fill:#1f6f78}.h{font-weight:bold;font-size:15px}</style>
<rect width="900" height="855" fill="#fff"/><text x="10" y="20" class="h">Wireframe — Home (desktop)</text>
<g transform="translate(0,30)"><rect class="d" width="900" height="50"/><text x="20" y="31" class="t h" style="fill:#fff">Durban Youth Council</text><text x="430" y="31" style="fill:#fff">Home</text><text x="520" y="31" style="fill:#fff">About Us</text><text x="610" y="31" style="fill:#fff">Programmes</text><text x="700" y="31" style="fill:#fff">Contact</text><rect class="a" x="780" y="12" width="105" height="26" rx="6"/><text x="788" y="30" style="font-size:11px">Volunteer/Sponsor</text><rect class="g" y="50" width="900" height="230"/><text x="40" y="110" class="t h" style="fill:#fff;font-size:24px">Empowering Durban's youth since 1966</text><text x="40" y="140" style="fill:#fff">Short mission statement…</text><rect class="a" x="40" y="165" width="150" height="34" rx="6"/><text x="55" y="187">Become a volunteer</text><rect x="205" y="165" width="120" height="34" rx="6" fill="none" stroke="#fff"/><text x="225" y="187" style="fill:#fff">Learn more</text><rect class="b" x="560" y="70" width="300" height="190"/><line x1="560" y1="70" x2="860" y2="260" stroke="#ccc"/><line x1="860" y1="70" x2="560" y2="260" stroke="#ccc"/><text x="655.6" y="169.0" style="background:#fff">Hero illustration</text><text x="40" y="320" class="h">What we do</text><rect class="b" x="40" y="335" width="260" height="90"/><line x1="40" y1="335" x2="300" y2="425" stroke="#ccc"/><line x1="300" y1="335" x2="40" y2="425" stroke="#ccc"/><text x="154.0" y="384.0" style="background:#fff">Image</text><rect class="b" x="40" y="425" width="260" height="70"/><text x="50" y="450" class="h">School Support</text><text x="50" y="472">Short description</text><rect class="b" x="325" y="335" width="260" height="90"/><line x1="325" y1="335" x2="585" y2="425" stroke="#ccc"/><line x1="585" y1="335" x2="325" y2="425" stroke="#ccc"/><text x="439.0" y="384.0" style="background:#fff">Image</text><rect class="b" x="325" y="425" width="260" height="70"/><text x="335" y="450" class="h">Charity Partnerships</text><text x="335" y="472">Short description</text><rect class="b" x="610" y="335" width="260" height="90"/><line x1="610" y1="335" x2="870" y2="425" stroke="#ccc"/><line x1="870" y1="335" x2="610" y2="425" stroke="#ccc"/><text x="724.0" y="384.0" style="background:#fff">Image</text><rect class="b" x="610" y="425" width="260" height="70"/><text x="620" y="450" class="h">Youth Leadership</text><text x="620" y="472">Short description</text><rect fill="#f4f4f4" y="515" width="900" height="140"/><text x="40" y="545" class="h">A community, in action</text><rect class="b" x="40" y="560" width="115" height="50" fill="#fff"/><text x="50" y="590">Fact 1</text><rect class="b" x="170" y="560" width="115" height="50" fill="#fff"/><text x="180" y="590">Fact 2</text><rect class="b" x="300" y="560" width="115" height="50" fill="#fff"/><text x="310" y="590">Fact 3</text><rect class="b" x="430" y="560" width="115" height="50" fill="#fff"/><text x="440" y="590">Fact 4</text><rect class="b" x="580" y="540" width="260" height="100"/><line x1="580" y1="540" x2="840" y2="640" stroke="#ccc"/><line x1="840" y1="540" x2="580" y2="640" stroke="#ccc"/><text x="662.0" y="594.0" style="background:#fff">Image + caption</text><rect class="a" y="655" width="900" height="90"/><text x="40" y="690" class="h">Get involved</text><rect x="40" y="702" width="100" height="30" rx="6" fill="#fff" stroke="#999"/><text x="55" y="722">Volunteer</text><rect x="155" y="702" width="130" height="30" rx="6" fill="none" stroke="#333"/><text x="170" y="722">Become a sponsor</text><rect class="d" y="745" width="900" height="80"/><text x="20" y="775" style="fill:#fff">About blurb</text><text x="410.0" y="775" style="fill:#fff">Quick links</text><text x="740" y="775" style="fill:#fff">Email · Social</text><text x="370.0" y="810" style="fill:#aaa;font-size:11px">© 2026 Durban Youth Council</text></g></svg>